/* XPM */
static const char *file_new[] = {
"20 20 12 1",
"  c white",
"! c None",
"# c #000",
"$ c #2e2e2e2e2e2e",
"% c #ffffffffffff",
"& c #5c5c5c5c5c5c",
"( c #878787878787",
") c #c2c2c2c2c2c2",
"* c black",
"+ c #00C900",
", c #ffff00",
"- c red",
"!!!!!!!!!!!!!!!!!!!!",
"!!##########$!!!!!!!",
"!!#%%%%%%%%#&$!!!!!!",
"!!#%%%%%%%%#(&$!!!!!",
"!!#%%%%%%%%#)(&$!!!!",
"!!#%%%%%%%%#%)(&$!!!",
"!!#%%%%*****#####!!!",
"!!#%%%*+++++*%%%#!!!",
"!!#%%*,++++++*%%#!!!",
"!!#%*,,,++++++*%#!!!",
"!!#%*,,,,+++++*%#!!!",
"!!#%*,,,,-++++*%#!!!",
"!!#%*,,,---+++*%#!!!",
"!!#%*,,-----++*%#!!!",
"!!#%%*-------*%%#!!!",
"!!#%%%*-----*%%%#!!!",
"!!#%%%%*****%%%%#!!!",
"!!#%%%%%%%%%%%%%#!!!",
"!!###############!!!",
"!!!!!!!!!!!!!!!!!!!!"
};
