/* XPM */
static const char *options_setoptions[] = {
"20 20 8 1",
"( c #A500FF",
"  c white",
") c grey30",
"! c None",
"# c #000",
"$ c grey60",
"% c grey100",
"& c black",
"!!!!!!!!!!!!!!!!!!!!",
"!#############$$$$$!",
"!#%%%%%%%%%%%%&$$$$!",
"!#%%%%%%%%%%%%%&$$$!",
"!#%%%%%%%%%%%%%%&$$!",
"!#%%%%%%%%%%%%%%%&$!",
"!#%%((%%%%%%%%%%%%#!",
"!#%%((%%%%%%%%%%%%#!",
"!#%%((%%%%%%%%%%%%#!",
"!#(((((((%%%%%%%%%#!",
"!#(((((((%%%%%%%%%#!",
"!#%%((%%%%%)%))))%#!",
"!#%%((%%%%%%%%%%%%#!",
"!#%%((%)))%)))%))%#!",
"!#%%%%%%%%%%%%%%%%#!",
"!#%%))%)%))))%))%%#!",
"!#%%%%%%%%%%%%%%%%#!",
"!#%%%%%%%%%%%%%%%%#!",
"!##################!",
"!!!!!!!!!!!!!!!!!!!!"
};
