/* XPM */
static const char *options_barchart[]={
"20 20 6 1",
". c None",
"# c #000000",
"c c #00ffff",
"d c #c0c0ff",
"b c #ff0000",
"a c #ffff00",
".........#..........",
"........#a#..b......",
".......#aaa#.bb.....",
"......#aaaca#bb.....",
".....#aacaadabb.....",
"....#aaaaaddabb.....",
"...#aacbcaddabb#....",
"..#aaaabbcddabba#...",
".#aacacbbaddbbbad#..",
"#aaaccabbaabbbadda#.",
".#aaaaabbcabbaaddaa#",
"..#acaabbccbbaadda#.",
"...#acabbacbbcadd#..",
"....#aabaaabbaaa#...",
".....#acacabbac#....",
"......#accabba#.....",
".......#accba#......",
"........#aca#.......",
".........#a#........",
"..........#........."};
