/* XPM */
static const char *pattern13[] = {
/* columns rows colors chars-per-pixel */
"40 20 2 1",
"  c black",
". c white",
/* pixels */
" ....... ....... ....... ....... .......",
". ....... ....... ....... ....... ......",
".. ....... ....... ....... ....... .....",
"... ....... ....... ....... ....... ....",
".... ....... ....... ....... ....... ...",
"..... ....... ....... ....... ....... ..",
"...... ....... ....... ....... ....... .",
"....... ....... ....... ....... ....... ",
" ....... ....... ....... ....... .......",
". ....... ....... ....... ....... ......",
".. ....... ....... ....... ....... .....",
"... ....... ....... ....... ....... ....",
".... ....... ....... ....... ....... ...",
"..... ....... ....... ....... ....... ..",
"...... ....... ....... ....... ....... .",
"....... ....... ....... ....... ....... ",
" ....... ....... ....... ....... .......",
". ....... ....... ....... ....... ......",
".. ....... ....... ....... ....... .....",
"... ....... ....... ....... ....... ...."
};
