/* XPM */
static const char *attach_process3_xpm[]={
"16 16 2 1",
"# c #000000",
". c #ffffff",
"................",
"................",
"....#.....#.....",
"...####.####....",
"....#######.....",
"....#.#.#.#.....",
"...####.####....",
"....#######.....",
"....#.#.#.#.....",
"...####.####....",
"....#.###.#.....",
"....###.###.....",
"...###...###....",
"....#.....#.....",
"................",
"................"};
