/* XPM */
static const char *detach_hand2_xpm[]={
"16 16 2 1",
". c #000000",
"# c #ffffff",
".........#######",
"#.#####.########",
"#..####.########",
"##.#.###.#######",
"##.##.##.#######",
"##.##..##.######",
"#.##...###.#####",
"#.#.##..##.#####",
"#.#.###.##.#####",
"##.#.##.##.##.##",
"####....#...#.#.",
"####..###.##...#",
"####.##..#......",
"####.##.####...#",
"#####..####.#.#.",
"#############.##"};
