/* XPM */
static const char *vsplit_xpm[]={
"16 16 2 1",
"# c #000000",
". c #ffffff",
"................",
".############.#.",
".#............#.",
".#...........##.",
".#...........##.",
".#...........##.",
".#...........##.",
".##############.",
".#...........##.",
".#...........##.",
".#...........##.",
".#...........##.",
".#...........##.",
"...############.",
".##############.",
"................"};
