/* XPM */
static const char *add_column_icon_xpm[]={
"28 28 7 1",
"# c None",
"b c #000000",
"e c #303030",
"d c #58a8ff",
". c #808080",
"a c #c1c1c1",
"c c #e2e3e2",
"............................",
".##########################.",
".##########################.",
".##########################.",
".##########################.",
".########################a#.",
".##########################.",
".##########################.",
".##########################.",
".#####bbbbb#c#######bbbbbb#.",
".####bdddddb#######bdddddeb.",
".###bdddddddb#####bdddddddbb",
".##bdddddddddb##cbddddddddde",
".##bdddddddddb##bddddddddddb",
".##bddbbbbbddb##bdddbbbbdddb",
".##bddb###bddb##bdddb##bdddb",
".##bddb###bddb##bdddb##bddbb",
".##bddb###bddb##bdddb##bbbb#",
".##bddbbbbbddb##bdddb#######",
".##bdddddddddb##bdddb#######",
".##bdddddddddb##bdddb##bbbbb",
".##bddbbbbbddb##bdddb##bdddb",
".##bddb###bddb##bdddb##bdddb",
".##bddb###bddb##bdddbbbbdddb",
".##bddb###bddb##bddddddddddb",
".##bddb###bddb##abddddddddbb",
".##bddb###eddb###bbbdddddbb#",
".##bddb###eddbc####bddddbb##"};
