/* XPM */
static const char *add_processes_icon_xpm[]={
"28 28 6 1",
"# c None",
"b c #000000",
"d c #00ff00",
". c #808080",
"a c #c1c1c1",
"c c #e2e3e2",
"............................",
".##########################.",
".####################a###a#.",
".##########################.",
".##########################.",
".##########################.",
".##########################.",
".###########a##############.",
".##########################.",
".#####bbbbb#######cbbbbb###.",
".####bdddddb######bdddddb##.",
".##cbdddddddbb###bdddddddb#.",
".##bdddddddddb##bdddddddddb.",
".##bdddddddddb##bdddddddddb.",
".##bddbbbbbddb##bddbbbbbdddb",
".##bddb###bddb##bddb###bdddb",
".##bddb###bddb##bddb###bdddb",
".##bddb###bddb##bddb###bdddb",
".##bddbbbbbddb##bddbbbbbddb.",
".##bdddddddddb##bdddddddddb.",
".##bdddddddddb##bddddddddb#.",
".##bddbbbbbddb##bddbbbbbbb#.",
".##bddb###bddb##bddb#######.",
".##bddb###bddb##bddb#######.",
".##bddb###bddb##bddb#######.",
".##bddb###bddb##bddb#######.",
".##bddb###bddb##bddb#######.",
".##bddb###bddb##bddb#######."};
