/* XPM */
static const char *compare_and_analyze_xpm[]={
"28 28 11 1",
"# c None",
"h c #000000",
". c #7c7c7c",
"i c #c000c0",
"c c #c1c1c1",
"b c #d9dada",
"d c #e2e3e2",
"e c #ededed",
"f c #f1f1f0",
"g c #f6f6f6",
"a c #ffffff",
"..................##########",
"...................#########",
"..aaaaaaaaaaaa..#a##########",
"..aaaaaaaaaaaa..############",
"..aabbccddcccc..a###########",
"..aabbccddcccc..a###########",
"..aacccccceeff..############",
"..aacccccceeff...######cccc#",
"..aaggcccccccccccccccccccccc",
"..aaggcchhhhhhccccccchhhhhhc",
"..aaccchiiiiiihccccchhiiihhh",
"..aacchiiiiiiiihccchhiiiiihh",
"..aachiiiiiiiiiihchhiiihiiih",
"..aachiiiiiiiiiihchhiihhhiii",
"..aachiiiihhhiiihchiiihhhiii",
"..aachiiiihchiiihchiiihihiii",
"..aachiiiihchhhhcchiihhihhii",
"..aachiiiihccccccchiihiiihii",
"..aachiiiihccccccchiihiiihii",
"..aachiiiihchhhhhchiihiiihii",
"..aachiiiihchiiihchiihhhhhii",
"..aachiiiihchiiihchiihhhhhii",
"..aachiiiihchiiihchiihiiihii",
"..aachiiiihhhiiihchiihiiihii",
".....hiiiiiiiiiihchihhiiihhi",
"...c.hiiiiiiiiiihchihhiiihhi",
"###cchhiiiiiiiihhchihiiiiihi",
"####cchhiiiiiihhcchhhiiiiihh"};
