/* XPM */
static char const *compare_and_analyze_xpm[]={
"28 28 11 1",
"# c None",
"h c #000000",
"i c #00c000",
". c #7c7c7c",
"c c #c1c1c1",
"b c #d9dada",
"d c #e2e3e2",
"e c #ededed",
"f c #f1f1f0",
"g c #f6f6f6",
"a c #ffffff",
"..................##########",
"...................#########",
"..aaaaaaaaaaaa..#a##########",
"..aaaaaaaaaaaa..############",
"..aabbccddcccc..a###########",
"..aabbccddcccc..a###########",
"..aacccccceeff..############",
"..aacccccceeff...######cccc#",
"..aaggcccccccccccccccccccccc",
"..aaggcchhhhhhccccccchhhhh#c",
"..aaccchiiiiiihccccchhiiihh#",
"..aacchiiiiiiiihccchhiiiiihh",
"..aachiiiiiiiiiihchhiiiiiiih",
"..aachiiiiiiiiiihchhiihhhiii",
"..aachiiiihhhiiihchiiihhhiii",
"..aachiiiihchiiihchiiih#hiii",
"..aachiiiihchhhhhchiihh#hhii",
"..aachiiiihccccccchiih###hii",
"..aachiiiihccccccchiih###hii",
"..aachiiiihchhhhhchiih###hii",
"..aachiiiihchiiihchiihhhhhii",
"..aachiiiihchiiihchiihhhhhii",
"..aachiiiihchiiihchiih###hii",
"..aachiiiihhiiiihchiih###hii",
".....hiiiiiiiiiihchiih###hii",
"...c.hiiiiiiiiiihchiih###hii",
"###cchhiiiiiiiihhchiih###hii",
"####cchhiiiiiihhcchhhh###hhh"};
