/* XPM */
static char * defaultView_xpm[] = {
"28 28 36 1",
" 	c None",
".	c #7C7C7C",
"+	c #FFFFFF",
"@	c #D9DADA",
"#	c #C1C1C1",
"$	c #E2E3E2",
"%	c #EDEDED",
"&	c #F1F1F0",
"*	c #E6E6E5",
"=	c #E9EAEB",
"-	c #EEEFEF",
";	c #F2F3F3",
">	c #F6F6F6",
",	c #000000",
"'	c #ECECEC",
")	c #00FF00",
"!	c #F2F2F1",
"~	c #F6F6F5",
"{	c #F9F9F9",
"]	c #F7F7F7",
"^	c #FCFBFB",
"/	c #FEFEFE",
"(	c #00F600",
"_	c #000E00",
":	c #001300",
"<	c #00FA00",
"[	c #000700",
"}	c #000400",
"|	c #00FD00",
"1	c #000F00",
"2	c #000600",
"3	c #000A00",
"4	c #000C00",
"5	c #000D00",
"6	c #001C00",
"7	c #001700",
"..................          ",
"..................          ",
"..++++++++++++..++..        ",
"..++++++++++++..++..        ",
"..++@@##$$####..++++..      ",
"..++@@##$$####..++++..      ",
"..++######%%&&........      ",
"..++######%%&&........      ",
"..++**==--;;>>######..      ",
"..++**==--;;,,,,,,,,,       ",
"..++''@@@@@@,)))))))),      ",
"..++''@@@@@@,))))))))),     ",
"..++!!~~{{]],)))))))))),    ",
"..++!!~~{{]],,))))))))),    ",
"..++@@@@@@]]#,))))))))),    ",
"..++@@@@@@]]#,))))))))),    ",
"..++^^//]]@@#,))))))))),    ",
"..++^^//]]@@#,))(_:)))<,    ",
"..++@@++@@@@#,)))[}))||,    ",
"..++@@++@@@@#,)))12))||,    ",
"..++++++++]]#,)))3[)))),    ",
"..++++++++]]#,))):_)))),    ",
"..++@@@@@@]]#,)))45)))),    ",
"..++@@@@@@]]#,)))67)))),    ",
"............,,))))))))),    ",
"............,)))))))))),    ",
"            ,))))))))),     ",
"            ,)))))))),      "};
