/* XPM */
static const char *down_triangle_boxed[]={
"16 13 2 1",
". c None",
"# c #000000",
"................",
".###############",
".#.............#",
".#.###########.#",
".#.###########.#",
".#..#########..#",
".#...#######...#",
".#....#####....#",
".#.....###.....#",
".#......#......#",
".#.............#",
".###############",
"................"};
