/* XPM */
static const char *focus_stats_icon_xpm[]={
"28 28 5 1",
"# c None",
"a c #000000",
"b c #58a8ff",
". c #808080",
"c c #c1c1c1",
"............................",
".##########################.",
".##########################.",
".##########################.",
".##########################.",
".##########################.",
".##########################.",
".##########################.",
".##########################.",
".#aaaaaaaaaaaa###aaaaaaaa##.",
".#abbbbbbbbbba##abbbbbbbaa#.",
".#abbbbbbbbbba#abbbbbbbbbba.",
".#abbbbbbbbbbaabbbbbbbbbbba.",
".#abbbbbbbbbbaabbbbbbbbbbbba",
".#abbbbaaaaaaaabbbbbbaabbbba",
".#abbbba#######abbbbbaabbbba",
".#abbbbaaaaa###aabbbbaaaaaaa",
".#abbbbbbbba####abbbbaa####.",
".#abbbbbbbba#####abbbbbba##.",
".#abbbbbbbba######bbbbbbba#.",
".#abbbbaaaaa######cabbbbbba.",
".#abbbba#######aaaaaabbbbbba",
".#abbbba######abbbbaaabbbbba",
".#abbbba######abbbbaabbbbbba",
".#abbbba######abbbbbbbbbbbba",
".#abbbba######abbbbbbbbbbba.",
".#abbbba#####abaabbbbbbbba#.",
"..abbbba.....abbabbbbbbba..."};
