/* XPM */
static char *hotcallpath_icon[]={
"28 28 13 1",
"# c None",
"a c None",
"h c #000000",
"j c #00ff00",
"k c #303030",
". c #7c7c7c",
"c c #c1c1c1",
"d c #d9dada",
"e c #e2e3e2",
"f c #ededed",
"g c #f1f1f0",
"i c #ff0000",
"b c #ffffff",
"....................#####aaa",
".....................####aaa",
"bbbbbbbbbb.....cccccccccccaa",
"bbbbbbbbbb...cccbbbbbbcbbcaa",
"ddcceecccc...c.bbbbbbbcbbcaa",
"ddcceecccc...ccc.bbbbbcbbcaa",
"ccccccffgg..ccccccccbbcbbcaa",
"ccccccffgg..cc....ccccccacaa",
"chhhhccchhhheeeeeehhhh.#aaaa",
"chiihccchiiheeeeehhhhhhcaaaa",
"chiihccchiiheeeehjjjjjkhcaaa",
"chiihccchiiheeehjjjjjjjhhaaa",
"chiihccchiiheehjjjjjjjjjkcaa",
"chiihccchiihehjjjjjjjjjjhcaa",
"chiihccchiihehjjjhhhhjjjhcaa",
"chiihccchiihehjjjheehjjjhcaa",
"chiihccchiihehjjjheehjjhhcaa",
"chiihhhhhiihehjjjheehhhhecaa",
"chiiiiiiiiihchjjjheeeeeeecac",
"chiiiiiiiiihchjjjheecceeeccc",
"chiiiiiiiiihchjjjheehhhhhccc",
"chiihhhhhiihehjjjheehjjjhccc",
"chiihccchiihehjjjheehjjjhccc",
"chiihccchiihehjjjhhhhjjjhccc",
"chiihccchiihehjjjjjjjjjjhccc",
"chiihccchiihechjjjjjjjjhhccc",
"chiihccchiiheehhhjjjjjhhcccc",
"chiihccchiihceechjjjjhhccccc"};
