/* XPM */
static const char *less_minus_metadata_xpm[]={
"28 28 11 1",
"a c None",
"c c #000000",
". c #7c7c7c",
"i c #c0ffff",
"# c #c1c1c1",
"d c #d9dada",
"e c #e2e3e2",
"g c #ededed",
"h c #f1f1f0",
"f c #ff0000",
"b c #ffffff",
"...................#######aa",
"...................#######aa",
"..b.b.b.b.b.###############a",
"..bbbbbbbbbbbb..bccccccccccc",
"..bbdd##ee####..bcfffffffffc",
"..bbdd##ee####..bcfffffffffc",
"..bb######gghh...cfffffffffc",
"..bb######gghh...ccccccccccc",
"..b###############bb######.a",
"..########################aa",
"..########################aa",
"..cccciiiiiiiiiiiicccc####aa",
"..ccccciiiiiiiiiiccccc##aaaa",
"..cccccciiiiiiiicccccc##aaaa",
"..ccccccciiiiiiccccccc##aaaa",
"..ccccccciiiiicccccccc##aaaa",
"..ccciccccciiccccicccc##aaaa",
"..ccciiccccccccciicccc##aaaa",
"..ccciiiccccccciiicccc##aaaa",
"..ccciiiiccccciiiicccc##aaaa",
"..ccciiiiiccciiiiicccc##aaaa",
"..ccciiiiiccciiiiicccc##aaaa",
"..ccciiiiiiiiiiiiicccc##aaaa",
"..ccciiiiiiiiiiiiicccc##aaaa",
"..ccciiiiiiiiiiiiicccc##aaaa",
"..ccciiiiiiiiiiiiicccc##aaaa",
"..ccciiiiiiiiiiiiicccc##aaaa",
"..######################aaaa"};
