/* XPM */
static const char *less_minus_metadata_xpm[]={
"28 28 11 1",
"# c None",
"c c #000000",
". c #7c7c7c",
"i c #c0ffff",
"a c #c1c1c1",
"d c #d9dada",
"e c #e2e3e2",
"g c #ededed",
"h c #f1f1f0",
"f c #ff0000",
"b c #ffffff",
"..........................##",
"..................a.......##",
"..b.b.b.b.b.b...bb........##",
"..bbbbbbbbbbbb..bccccccccccc",
"..bbddaaeeaaaa..bcfffffffffc",
"..bbddaaeeaaaa..bcfffffffffc",
"..bbaaaaaagghh...cfffffffffc",
"..bbaaaaaagghh...ccccccccccc",
"..baaaaaaaaaaaaaaabb.......#",
"..aaaaaaaaaaaaaaaaaa......##",
"..aaaaaaaaaaaaaaaaaa.....a##",
"..cccaaaaaaaaaaaaaccccaaaa##",
"..ccccaaaaaaaaaaacccccaa####",
"..ciiccaaaaaaaaaccciicaa####",
"..ciiicaaaaaaaaccciiicaa####",
"..ciiiccaaaaaaccciiiicaa####",
"..ciiiiccaaaaacciiiiicaa####",
"..ciiiiiccaaacciiiiiicaa####",
"..ciiciiicaaaciiicciicaa####",
"..ciicciiccccciiccciicaa####",
"..ciiccciiiiiiicccciicaa####",
"..ciicacciiiiiccaaciicaa####",
"..ciicaacciiiiccaaciicaa####",
"..ciicaaaccicccaaaciicaa####",
"..ciicaaaacccaaaaaciicaa####",
"..ciicaaaaaaaaaaaaciicaa####",
"..ccccaaaaaaaaaaaaccccaa####",
"..aaaaaaaaaaaaaaaaaaaaaa####"};
