/* XPM */
static char *LessMetadata[]={
"28 28 14 1",
"# c None",
"e c #000000",
". c #7c7c7c",
"l c #c000c0",
"j c #c1c1c1",
"i c #d9dada",
"d c #e6e6e5",
"c c #ededed",
"f c #f2f3f3",
"g c #f6f6f6",
"h c #f7f7f7",
"k c #f9f9f9",
"b c #ff00ff",
"a c #ffffff",
"..................##########",
"..................##########",
"..aaaaaaaaaaaaaaaaaaaa######",
"..aaaaaaaaaaaaaaaaaaaaa#####",
"..aabaaaabbbabbbabbbaaa#####",
"..aabaaaabaaabaaabaaaaa#####",
"..aabaaaabbaabbbabbbaaa#####",
"..aabaaaabcaaaabaaabaaa#####",
"..aabbbbabbbabbbabbbaaa#####",
"..aadeeeeeefghhhhhheeeeee###",
"..aaaebbbbeijhhhhhhebbbbe###",
"..aaaebbibeejhhhhheebhbbe###",
"..aaaebbkbbejhhhhjebbhbbe###",
"..aaaebbkkbeehhhhjebjhbbe###",
"..aaaebbiibbehhhhjebjhbbe###",
"..aaaebbiihbeehhhjebahbbe###",
"..aaaebbhhibbehhhebbhhbbe###",
"..aaaebbhhiibeehhebbhhbbe###",
"..aaaebbiiiibbehhebbhhbbe###",
"..aaiebbiiiijbeeeblhhhbbe###",
"..aaaebbaahhjbbebbhhhhbbe###",
"..aaaebbaahhhhblllhaaabbe###",
"..aaiebbiihhjhhhhhhhaaaae###",
"..aaiebbabbhabbbhbbbabbbe###",
".....ebbabababhbhhbaababe###",
".....ebbabababbbhhbaabbbe###",
"#####ebbabababhbhhbaababe###",
"#####ebbabbaabhbhhbaababe###"};
