/* XPM */
static const char *load_balance_icon_xpm[]={
"28 28 17 1",
"# c None",
"l c #000000",
". c #7c7c7c",
"m c #c0c0ff",
"c c #c1c1c1",
"b c #d9dada",
"d c #e2e3e2",
"g c #e6e6e5",
"h c #e9eaeb",
"e c #ededed",
"i c #eeefef",
"f c #f1f1f0",
"j c #f2f3f3",
"k c #f6f6f6",
"o c #f7f7f7",
"n c #f9f9f9",
"a c #ffffff",
"..................##########",
"..................##########",
"..aaaaaaaaaaaa..aa..########",
"..aaaaaaaaaaaa..aa..########",
"..aabbccddcccc..aaaa..######",
"..aabbccddcccc..aaaa..######",
"..aacccccceeff........######",
"..aacccccceeff........######",
"..aagghhiijjkkcccccc..######",
".llllllbbijjlllllllll#######",
".lmmmmlbbbbblmmmmmmmml######",
".lmmmmlbbbbblmmmmmmmmml#####",
".lmmmmlbbnoolmmmmmmmmmml####",
".lmmmmlbbnoollmmmmmmmmml####",
".lmmmmlbbbooclmmmlllmmml####",
".lmmmmlbbbooclmmmlllmmml####",
".lmmmmlboobbclmmmmmmmmml####",
".lmmmmlboobbclmmmmmmmml#####",
".lmmmmlbbbbbclmmmmmmll######",
".lmmmmlbbbbbclmmmmmmmml#####",
".lmmmmlbaaooclmmmmmmmmml####",
".lmmmmlbaaooclmmmmmmmmml####",
".lmmmmlbbbboclmmmlllmmml####",
".lmmmmllllllllmmmlllmmml####",
".lmmmmmmmmmmllmmmmmmmmml####",
".lmmmmmmmmmmlmmmmmmmmmml####",
"#lmmmmmmmmmmlmmmmmmmmml#####",
"#lllllllllllllllllllll######"};
