/* XPM */
static const char * menu_xpm[] = {
"14 14 30 1",
" 	c none",
".	c #FFFFFF",
"x  c #4B4449",
"y  c #A7A7A7",
"+	c #BDBDBD",
"#	c #B9B9B9",
"$	c #BEBEBE",
"*	c #C5C5C5",
";	c #A3A3A3",
",	c #A7A7A7",
"'	c #A2A2A2",
")	c #A9A9A9",
"!	c #A1A1A1",
"~	c #AAAAAA",
"{	c #BFBFBF",
"]	c #B8B8B8",
"^	c #A5A5A5",
"(	c #ACACAC",
"_	c #A4A4A4",
":	c #AEAEAE",
"[	c #C0C0C0",
"}	c #A6A6A6",
"|	c #ABABAB",
"1	c #ADADAD",
"3	c #C4C4C4",
"5	c #9A9A9A",
"6	c #989898",
"7	c #B7B7B7",
"0	c #C6C6C6",
"c	c #B6B6B6",
"              ",
" xxxxxxx      ",
" x;')!~x      ",
" x^.(_:x0     ",
" x+$#xxxxxxxx ", 
" x}_,x.|,7(~x ",
" x}{[x,]][]cx ",
" x3**x:)xxxxxx",
" x561x.}xxxxx ",
" xxxxxx}xxxxx ",
"     0x}xx1xxx",
"      x}^[1)xx",
"      xxxxxxx ",
"              ",
};
