/* XPM */
static const char *meta_information_plus_xpm[]={
"28 28 11 1",
"# c None",
"a c #000000",
"i c #58a8ff",
". c #7c7c7c",
"e c #c1c1c1",
"d c #d9dada",
"f c #e2e3e2",
"g c #ededed",
"h c #f1f1f0",
"b c #ff0000",
"c c #ffffff",
"..................##aaaaa###",
"...................#abbba###",
"..cccccccccccc..cc..abbba###",
"..cccccccccccc..caaaabbbaaaa",
"..ccddeeffeeee..cabbbbbbbbba",
"..ccddeeffeeee..cabbbbbbbbba",
"..cceeeeeegghh...abbbbbbbbba",
"..cceeeeeegghh...aaaabbbaaaa",
"..ceeeeeeeeeeeeeeeccabbba###",
"..ceaaaaaaaaaaaaaaecabbba###",
"..ceaiiiiiiiiiiiiaecaaaaa###",
"..ceaiiiiiiiiiiiiaec..######",
"..ceaiiiiiiiiiiiiaec..######",
"..ceaaaaaiiiiaaaaaec..######",
"..ceeeeeaiiiiaeeeeec..######",
"..ceeeeeaiiiiaeeeeec..######",
"..cchheeaiiiiaehhhcc..######",
"..ccdhheaiiiiaeheecc..######",
"..ccdheeaiiiiaeheecc..######",
"..ccdheeaiiiiaedhhec..######",
"..ccddeeaiiiiaehhhcc..######",
"..cchhheaiiiiaehhhcc..######",
"..ccdheeaiiiiaedddec..######",
"..ccaaaaaiiiiaaaaa#e..######",
"....aiiiiiiiiiiiia#...######",
"....aiiiiiiiiiiiia#...######",
"####aiiiiiiiiiiiia##########",
"####aaaaaaaaaaaaaa##########"};
