/* XPM */
static const char *meta_information_minus_xpm[]={
"28 28 11 1",
"# c None",
"b c #000000",
"i c #58a8ff",
". c #7c7c7c",
"d c #c1c1c1",
"c c #d9dada",
"e c #e2e3e2",
"g c #ededed",
"h c #f1f1f0",
"f c #ff0000",
"a c #ffffff",
"..................##..######",
"...................#...#####",
"..aaaaaaaaaaaa..aa....######",
"..aaaaaaaaaaaa..abbbbbbbbbbb",
"..aaccddeedddd..abfffffffffb",
"..aaccddeedddd..abfffffffffb",
"..aaddddddgghh...bfffffffffb",
"..aaddddddgghh...bbbbbbbbbbb",
"..adddddddddddddddaa..######",
"..adbbbbbbbbbbbbbbda..######",
"..adbiiiiiiiiiiiibda..######",
"..adbiiiiiiiiiiiibda..######",
"..adbiiiiiiiiiiiibda..######",
"..adbbbbbiiiibbbbbda..######",
"..adddddbiiiibddddda..######",
"..adddddbiiiibddddda..######",
"..aahhddbiiiibdhhhaa..######",
"..aachhdbiiiibdhddaa..######",
"..aachddbiiiibdhddaa..######",
"..aachddbiiiibdchhda..######",
"..aaccddbiiiibdhhhaa..######",
"..aahhhdbiiiibdhhhaa..######",
"..aachddbiiiibdcccda..######",
"..aabbbbbiiiibbbbb#d..######",
"....biiiiiiiiiiiib#...######",
"....biiiiiiiiiiiib#...######",
"####biiiiiiiiiiiib##########",
"####bbbbbbbbbbbbbb##########"};
