/* XPM */
static char *MoreMetadata[]={
"28 28 14 1",
"# c None",
"g c #000000",
". c #7c7c7c",
"l c #c000c0",
"e c #c1c1c1",
"j c #d9dada",
"f c #e6e6e5",
"c c #ededed",
"d c #f2f3f3",
"h c #f6f6f6",
"i c #f7f7f7",
"k c #f9f9f9",
"b c #ff00ff",
"a c #ffffff",
"..................##########",
"..................##########",
"..aaaaaaaaaaaaaaaaaaaa######",
"..aaaaaaaaaaaaaaaaaaaaa#####",
"..abbaaabbabbbabbbaabbb#####",
"..abbbabbbababababaabaa#####",
"..abbababbcbababbbbabba#####",
"..abbababbcbabababbabaa#####",
"..abbaaabbdbbbebabbabbb#####",
"..aafggggggdhiiiiiigggggg###",
"..aaagbbbbgjeiiiiiigbbbbg###",
"..aaagbbjbggeiiiiiggbibbg###",
"..aaagbbkbbgeiiiiegbbibbg###",
"..aaagbbkkbggiiiiegbeibbg###",
"..aaagbbjjbbgiiiiegbeibbg###",
"..aaagbbjjibggiiiegbaibbg###",
"..aaagbbiijbbgiiigbbiibbg###",
"..aaagbbiijjbggiigbbiibbg###",
"..aaagbbjjjjbbgiigbbiibbg###",
"..aajgbbjjjjebgggbliiibbg###",
"..aaagbbaaiiebbgbbiiiibbg###",
"..aaagbbaaiiiibllliaaabbg###",
"..aajgbbaaiiaiiiiiiiaaaag###",
"..aajgbbabbiabbbibbbabbbg###",
".....gbbabababibiibaababg###",
".....gbbabababbbiibaabbbg###",
"#####gbbabababibiibaababg###",
"#####gbbabbaabibiibaababg###"};
