/* XPM */
static const char *more_plus_metadata_xpm[]={
"28 28 11 1",
"a c None",
"# c #000000",
". c #7c7c7c",
"i c #c0ffff",
"e c #c1c1c1",
"d c #d9dada",
"f c #e2e3e2",
"g c #ededed",
"h c #f1f1f0",
"b c #ff0000",
"c c #ffffff",
"....................#####.aa",
"....................#bbb#.aa",
"..c.c.c.c.c.c...cc..#bbb#.aa",
"..cccccccccccc..c####bbb####",
"..ccddeeffeeee..c#bbbbbbbbb#",
"..ccddeeffeeee..c#bbbbbbbbb#",
"..cceeeeeegghh...#bbbbbbbbb#",
"..cceeeeeegghh...####bbb####",
"..ceeeeeeeeeeeeeeecc#bbb#..a",
"..eeeeeeeeeeeeeeeeee#bbb#.aa",
"..eeeeeeeeeeeeeeeeee#####eaa",
"..####iiiiiiiiiiii####eeeeaa",
"..#####iiiiiiiiii#####eeaaaa",
"..######iiiiiiii######eeaaaa",
"..#######iiiiii#######eeaaaa",
"..#######iiiii########eeaaaa",
"..###i#####ii####i####eeaaaa",
"..###ii#########ii####eeaaaa",
"..###iii#######iii####eeaaaa",
"..###iiii#####iiii####eeaaaa",
"..###iiiii###iiiii####eeaaaa",
"..###iiiii###iiiii####eeaaaa",
"..###iiiiiiiiiiiii####eeaaaa",
"..###iiiiiiiiiiiii####eeaaaa",
"..###iiiiiiiiiiiii####eeaaaa",
"..###iiiiiiiiiiiii####eeaaaa",
"..###iiiiiiiiiiiii####eeaaaa",
"..eeeeeeeeeeeeeeeeeeeeeeaaaa"};
