/* XPM */
static const char *more_plus_metadata_xpm[]={
"28 28 11 1",
"a c None",
"# c #000000",
". c #7c7c7c",
"i c #c0ffff",
"e c #c1c1c1",
"d c #d9dada",
"f c #e2e3e2",
"g c #ededed",
"h c #f1f1f0",
"b c #ff0000",
"c c #ffffff",
"....................#####.aa",
"....................#bbb#.aa",
"..c.c.c.c.c.c...cc..#bbb#.aa",
"..cccccccccccc..c####bbb####",
"..ccddeeffeeee..c#bbbbbbbbb#",
"..ccddeeffeeee..c#bbbbbbbbb#",
"..cceeeeeegghh...#bbbbbbbbb#",
"..cceeeeeegghh...####bbb####",
"..ceeeeeeeeeeeeeeecc#bbb#..a",
"..eeeeeeeeeeeeeeeeee#bbb#.aa",
"..eeeeeeeeeeeeeeeeee#####eaa",
"..###eeeeeeeeeeeee####eeeeaa",
"..####eeeeeeeeeee#####eeaaaa",
"..#ii##eeeeeeeee###ii#eeaaaa",
"..#iii#eeeeeeee###iii#eeaaaa",
"..#iiii#eeeeee###iiii#eeaaaa",
"..#iiii##eeeee##iiiii#eeaaaa",
"..#iiiii##eee##iiiiii#eeaaaa",
"..#ii#iii#eee#iii##ii#eeaaaa",
"..#ii##ii#####ii###ii#eeaaaa",
"..#ii###iiiiiii####ii#eeaaaa",
"..#ii#e##iiiii##ee#ii#eeaaaa",
"..#ii#ee##iiii##ee#ii#eeaaaa",
"..#ii#eee##i###eee#ii#eeaaaa",
"..#ii#eeee###eeeee#ii#eeaaaa",
"..#ii#eeeeeeeeeeee#ii#eeaaaa",
"..####eeeeeeeeeeee####eeaaaa",
"..eeeeeeeeeeeeeeeeeeeeeeaaaa"};
