/* XPM */
static const char *remove_column_icon_xpm[]={
"28 28 6 1",
"# c None",
"a c #000000",
"c c #303030",
"b c #58a8ff",
". c #808080",
"d c #e2e3e2",
"............................",
".##########################.",
".##########################.",
".##########################.",
".##########################.",
".##########################.",
".##########################.",
".##########################.",
".##########################.",
".#####aaaaaa#######aaaaaa##.",
".####abbbbbaa######bbbbbca#.",
".###abbbbbbbaa###abbbbbbbaa.",
".##abbbbbbbbba##abbbbbbbbbc.",
".##abbbbbbbbbadabbbbbbbbbba.",
".##abbaaaaabbbaabbbaaaabbba.",
".##abba###abbbaabbba##abbba.",
".##abba###abbbbabbba##abbaa.",
".##abba###abbbbabbba##aaaa#.",
".##abbaaaaabbbaabbba#######.",
".##abbbbbbbbba#abbba#######.",
".##abbbbbbbba##abbba##aaaaa.",
".##abbaaaabbba#abbba##abbba.",
".##abba##abbba#abbba##abbba.",
".##abba###abbba#abbaaaabbba.",
".##abba###abbba#abbbbbbbbba.",
".##abba####abbbaabbbbbbbbaa.",
".##abba####abbbbaabbbbbbaa#.",
".##abba####abbbba#abbbbaa#.."};
