/* XPM */
static const char *remove_processes_icon_xpm[]={
"28 28 6 1",
"# c None",
"b c #000000",
"d c #00ff00",
"a c #303030",
". c #808080",
"c c #e2e3e2",
"............................",
".##########################.",
".##########################.",
".##########################.",
".##########################.",
".##########################.",
".##########################.",
".##########################.",
".##########################.",
".#####abbbbb#######bbbbb###.",
".###cbdddddba#####bdddddb##.",
".###bdddddddba###bdddddddb#.",
".##bdddddddddb##bdddddddddb.",
".##bdddddddddb##bdddddddddb.",
".##bddbbbbbdddb#bddbbbbbdddb",
".##bddb###bdddb#bddb###bdddb",
".##bddb###bddddabddb###bdddb",
".##bddb###bddddabddb###bdddb",
".##bddbbbbbddddabddbbbbbddb.",
".##bdddddddddbbbbddddddddb#.",
".##bddddddddb###bddddddddb#.",
".##bddbbbbdddb##bddabbbbbc#.",
".##bddb##bdddb##bdda####c##.",
".##bddb###bdddb#bdda#######.",
".##bddb###bdddb#bdda#######.",
".##bddb####bdddbbdda#######.",
".##bddb####bddddbdda#######.",
".##bddb####bddddbdda#######."};
