/* XPM */
static const char *update_icon_xpm[]={
"28 28 6 1",
"# c None",
". c #7c7c7c",
"d c #c000c0",
"c c #c1c1c1",
"b c #e2e3e2",
"a c #ffffff",
"..................##########",
"...................#########",
".aaaaaaaaaaaaa........######",
".aaaaaaaaaaaaa.baaaaa..#####",
".aaaaaaaaaaaaa..aaaaa..#####",
".aaaaaaaaaaaaaa.aaaaa..#####",
".aaaaabbbbbbaaa.bacaa..c####",
".aaaaaabbccbaaa........#####",
".aaaaacaaaabaaa........#####",
"..aacccccccbaaccccccbbb#####",
"..bcddddddccbddddddccbb#####",
"..bcddddddccbddddddccbb#####",
"..bcccddddcbbddddcccbbb#####",
"..baccddddaabddddcbcbbc#####",
"..bcaaddddabcddddcbbbbcb####",
".cbaccddddabcddddcbbbbc#####",
".cbcacddddabcddddcbcbbc#####",
".cbaaaddddacbddddcbbcbc#####",
".bbaccddddacbddddcbbbbc#####",
".bcaacddddaabddddcbabcb#####",
".bbcacddddaabddddcbabcb#####",
"..baccddddaacddddcbabcb#####",
"..bbacddddaacddddcbabcb#b###",
"..cbccddddcacddddcbabcb#b###",
".bbbbcdddddddddddbcabcb###b#",
".bcbccdddddddddddbccbbbb####",
".bbbbccdddddddddcbbbcbb#b##b",
"..bcccccdddddddccccbbbc####b"};
