/* XPM */
static const char *file_saveaspostscript[] = {
"20 20 10 1",
"  c white",
"! c #000",
"# c #002EFF",
"$ c #999999999999",
"% c None",
"& c #00C900",
"( c #ffff00",
") c red1",
"* c black",
"+ c grey100",
"!!!!!!!!!!!!!!!!!!!!",
"!##!$$$!!!!!!$$$!%%!",
"!##!$$!&&&&&&!$$!%%!",
"!##!$!(&&&&&&&!$!!!!",
"!##!!(((&&&&&&&!!##!",
"!##!!((((&&&&&&!!##!",
"!##!!((((()&&&&!!##!",
"!##!!((())))&&&!!##!",
"!##!!(())))))&&!!##!",
"!##!$!))))))))!$!##!",
"!###!$!))))))!$*###!",
"!####***!!!!!***###!",
"!##################!",
"!###!!!!!!!!!!!!!##!",
"!###!+++!+++!$$$!##!",
"!###!+!+!+!!!$$$!##!",
"!###!+++!+++!$$$!##!",
"!###!+!!!!!+!$$$!##!",
"!###!+!!!+++!$$$!##!",
"%!!!!!!!!!!!!!!!!!!%"
};
