/* XPM */
static const char *options_verticalbarchart[] = {
"20 20 7 1",
"( c #A500FF",
"  c white",
"! c None",
"# c #00C900",
"$ c #E9FF00",
"% c red1",
"& c #002EFF",
"!!!!!!!!####!!!!!!!!",
"!!!!!!!!####!!!!!!!!",
"!!!!!!!!####!!!!!!!!",
"!!!!$$$$####!!!!!!!!",
"!!!!$$$$####!!!!!!!!",
"!!!!$$$$####!!!!!!!!",
"%%%%$$$$####&&&&!!!!",
"%%%%$$$$####&&&&!!!!",
"%%%%$$$$####&&&&!!!!",
"%%%%$$$$####&&&&((((",
"%%%%$$$$####&&&&((((",
"%%%%$$$$####&&&&((((",
"%%%%$$$$####&&&&((((",
"%%%%$$$$####&&&&((((",
"%%%%$$$$####&&&&((((",
"%%%%$$$$####&&&&((((",
"%%%%$$$$####&&&&((((",
"%%%%$$$$####&&&&((((",
"%%%%$$$$####&&&&((((",
"%%%%$$$$####&&&&(((("
};
