/* XPM */
static const char *options_horizontalbarchart[] = {
"20 20 7 1",
"( c #A500FF",
"  c white",
"! c red1",
"# c None",
"$ c #E9FF00",
"% c #00C900",
"& c #002EFF",
"!!!!!!!!!!!!!!######",
"!!!!!!!!!!!!!!######",
"!!!!!!!!!!!!!!######",
"!!!!!!!!!!!!!!######",
"$$$$$$$$$$$$$$$$$###",
"$$$$$$$$$$$$$$$$$###",
"$$$$$$$$$$$$$$$$$###",
"$$$$$$$$$$$$$$$$$###",
"%%%%%%%%%%%%%%%%%%%%",
"%%%%%%%%%%%%%%%%%%%%",
"%%%%%%%%%%%%%%%%%%%%",
"%%%%%%%%%%%%%%%%%%%%",
"&&&&&&&&&&&&&&######",
"&&&&&&&&&&&&&&######",
"&&&&&&&&&&&&&&######",
"&&&&&&&&&&&&&&######",
"(((((((((((#########",
"(((((((((((#########",
"(((((((((((#########",
"(((((((((((#########"
};
